<svg xmlns="http://www.w3.org/2000/svg" width="220" height="60" version="1.0" viewBox="100 10 275 65">
            <path d="m128.576 50.045-2.515-8.219h-12.594l-2.5 8.219h-7.89l12.187-34.688h8.953l12.25 34.688Zm-4.265-14.36-2.5-8.046q-.236-.797-.625-2.063-.394-1.266-.781-2.578a44 44 0 0 1-.625-2.281q-.235.972-.657 2.406c-.273.95-.53 1.852-.78 2.703a78 78 0 0 1-.548 1.813l-2.484 8.047Zm26.644 14.829q-3.924 0-6.688-1.422-2.751-1.437-4.203-4.438c-.96-2-1.437-4.554-1.437-7.672q0-4.84 1.64-7.906 1.64-3.059 4.563-4.5 2.92-1.436 6.766-1.437c1.832 0 3.41.18 4.734.531q1.999.532 3.5 1.266l-2.14 5.562a39 39 0 0 0-3.157-1.11c-.98-.288-1.96-.437-2.937-.437q-1.893 0-3.141.89-1.254.878-1.875 2.657c-.406 1.18-.61 2.656-.61 4.438q0 2.626.657 4.343c.445 1.149 1.086 2 1.922 2.563q1.248.843 3.047.844 2.249.002 4-.594 1.746-.608 3.406-1.703v6.172a12 12 0 0 1-3.469 1.484q-1.814.468-4.578.469m25.281-5.734q1.183 0 2.297-.235 1.125-.232 2.25-.594v5.36q-1.174.517-2.891.859a19 19 0 0 1-3.734.344q-2.363-.002-4.25-.766-1.875-.761-2.954-2.672-1.064-1.904-1.062-5.297V29.045h-3.453v-3.047l3.969-2.422 2.078-5.578h4.609v5.625h7.39v5.422h-7.39v12.734q-.001 1.517.86 2.266.856.736 2.28.734m34.11-21.156v26.422h-5.515l-.969-3.375h-.39a7.25 7.25 0 0 1-2.126 2.203 9 9 0 0 1-2.812 1.234q-1.536.406-3.188.407-2.828-.002-4.937-1-2.097-.997-3.266-3.125-1.172-2.121-1.172-5.532V23.623h7.203v15.438q-.002 2.828 1.016 4.28c.676.962 1.754 1.438 3.234 1.438 1.47 0 2.618-.332 3.454-1q1.247-1.013 1.75-2.953.515-1.951.515-4.765V23.623Zm18.39-.531q5.31.002 8.14 2.312 2.843 2.315 2.844 7.032v17.609h-5.031l-1.406-3.594h-.188q-1.127 1.426-2.312 2.328a8.1 8.1 0 0 1-2.719 1.313q-1.533.422-3.734.422-2.332 0-4.188-.89-1.862-.904-2.922-2.75-1.064-1.86-1.062-4.72 0-4.2 2.953-6.203 2.953-1.998 8.86-2.203l4.593-.14v-1.172q-.002-2.075-1.094-3.047-1.096-.968-3.031-.969a13.1 13.1 0 0 0-3.75.547q-1.846.55-3.687 1.375l-2.391-4.875c1.406-.738 2.976-1.317 4.719-1.735q2.606-.639 5.406-.64m3.828 14.719-2.797.093c-2.336.063-3.953.48-4.86 1.25q-1.358 1.161-1.359 3.047c0 1.106.32 1.89.97 2.36q.966.688 2.53.687 2.311 0 3.907-1.36c1.07-.913 1.609-2.218 1.609-3.906Zm21.767 12.234h-7.202V13.279h7.203Zm6.546-3.375q0-2.217 1.219-3.11c.812-.6 1.789-.906 2.937-.906q1.672.002 2.891.907 1.22.892 1.219 3.109 0 2.128-1.219 3.078-1.22.938-2.89.938-1.722 0-2.938-.938-1.22-.95-1.219-3.078m-151.18 20.512-.625-2.062H105.9l-.625 2.062h-1.985l3.063-8.719h2.25l3.078 8.72Zm-1.062-3.61-.64-2.015q-.064-.2-.157-.516c-.062-.218-.133-.437-.203-.656a7 7 0 0 1-.14-.562q-.066.235-.173.593-.11.363-.203.688-.094.314-.125.453l-.625 2.016Zm6.681 3.735q-.985 0-1.688-.36-.69-.358-1.047-1.109-.361-.764-.359-1.937-.002-1.218.406-1.985a2.63 2.63 0 0 1 1.156-1.125q.732-.375 1.704-.375.684 0 1.187.141.499.127.875.313l-.531 1.406a11 11 0 0 0-.813-.281c-.242-.07-.48-.11-.718-.11q-.487 0-.797.219-.316.221-.469.672-.157.44-.156 1.11-.002.657.156 1.093.169.44.484.656c.22.137.477.203.782.203q.561.002 1-.156.433-.153.843-.422v1.547q-.409.27-.859.375-.456.124-1.156.125m6.357-1.453q.294 0 .578-.047c.188-.039.375-.094.563-.156v1.344q-.3.141-.735.218a4.3 4.3 0 0 1-.937.094c-.399 0-.75-.062-1.063-.187a1.6 1.6 0 0 1-.75-.672c-.18-.32-.265-.77-.265-1.344V61.9h-.86v-.766l1-.594.516-1.406h1.156v1.406h1.86v1.36h-1.86v3.203c0 .25.07.437.219.562q.215.188.578.188m8.572-5.312v6.641h-1.39l-.25-.844h-.095a2 2 0 0 1-.546.547 2 2 0 0 1-.704.313c-.25.07-.515.11-.796.11a2.9 2.9 0 0 1-1.235-.25 1.9 1.9 0 0 1-.828-.798q-.28-.528-.281-1.39v-4.33h1.797v3.875q-.001.72.25 1.079c.175.242.453.359.828.359q.543.001.86-.25.308-.247.437-.734.14-.5.14-1.204V60.54Zm4.611-.125c.883 0 1.563.196 2.031.579.477.386.72.976.72 1.765v4.422h-1.266l-.344-.906h-.047a3.5 3.5 0 0 1-.578.594q-.3.222-.688.328a3.6 3.6 0 0 1-.937.11q-.58-.001-1.047-.22a1.7 1.7 0 0 1-.734-.703q-.268-.467-.266-1.187c0-.707.242-1.227.734-1.563.5-.332 1.242-.515 2.235-.547l1.14-.03v-.298q0-.514-.28-.765-.27-.249-.75-.25-.487 0-.954.14-.457.143-.906.344l-.61-1.219a5 5 0 0 1 1.188-.437q.655-.155 1.36-.157m.953 3.688-.703.031q-.879.019-1.219.313c-.218.187-.328.445-.328.765q0 .41.235.594.247.174.64.172.575.001.97-.344.404-.34.405-.984Zm5.48 3.078h-1.813v-9.234h1.813Zm7.724-8.672q1.17 0 1.938.281.78.284 1.156.86.375.58.375 1.453 0 .596-.235 1.047a2.3 2.3 0 0 1-.593.75 3.7 3.7 0 0 1-.797.5l2.562 3.781h-2.047l-2.078-3.328h-.968v3.328h-1.844V58.51Zm-.14 1.5h-.547v2.344h.593q.903 0 1.297-.297.406-.31.406-.906-.002-.608-.437-.875-.422-.265-1.313-.266m8.226.406q.92.002 1.578.36.668.363 1.03 1.031.36.657.36 1.625v.89h-4.281q.03.77.453 1.204.436.422 1.203.422.64.001 1.172-.125.528-.122 1.078-.39v1.405a4.2 4.2 0 0 1-1.031.344q-.534.124-1.297.125-1.003 0-1.765-.375a2.77 2.77 0 0 1-1.204-1.125q-.438-.75-.437-1.89 0-1.171.39-1.938a2.66 2.66 0 0 1 1.094-1.172q.718-.389 1.657-.39m.015 1.297q-.533.002-.89.344-.345.33-.391 1.047h2.547a1.9 1.9 0 0 0-.156-.703 1.07 1.07 0 0 0-.422-.5q-.268-.188-.688-.188m7.148-1.298c.883 0 1.563.196 2.032.579.476.386.718.976.718 1.765v4.422h-1.265l-.344-.906h-.047a3.5 3.5 0 0 1-.578.594q-.3.222-.687.328c-.262.07-.575.11-.938.11q-.579-.001-1.047-.22a1.7 1.7 0 0 1-.734-.703q-.268-.467-.266-1.187c0-.707.242-1.227.735-1.563q.748-.498 2.234-.547l1.14-.03v-.298q0-.514-.28-.765-.27-.249-.75-.25-.486 0-.954.14-.456.143-.906.344l-.61-1.219a5 5 0 0 1 1.188-.437q.656-.155 1.36-.157m.954 3.688-.704.031q-.879.019-1.218.313c-.22.187-.328.445-.328.765q0 .41.234.594.247.174.64.172.576.001.97-.344.405-.34.406-.984Zm5.479 3.078h-1.813v-9.234h1.813Zm3.708-6.641v6.641h-1.812v-6.64Zm-.906-2.593q.406 0 .687.187.296.188.297.703-.001.502-.297.688a1.2 1.2 0 0 1-.687.187q-.41 0-.703-.187-.28-.186-.281-.688 0-.515.281-.703.294-.187.703-.187m5.599 7.906q.294 0 .578-.047c.188-.039.375-.094.563-.156v1.344q-.3.141-.735.218a4.3 4.3 0 0 1-.937.094c-.399 0-.75-.062-1.063-.187a1.6 1.6 0 0 1-.75-.672c-.18-.32-.265-.77-.265-1.344V61.9h-.86v-.766l1-.594.516-1.406h1.156v1.406h1.86v1.36h-1.86v3.203c0 .25.07.437.219.562q.215.188.578.188m1.524-5.312h1.985l1.25 3.735q.059.188.094.375a4.5 4.5 0 0 1 .125.781h.031c.031-.219.067-.414.11-.594q.06-.281.156-.562l1.219-3.735h1.953l-2.813 7.485q-.25.685-.672 1.14a2.7 2.7 0 0 1-.937.704 2.9 2.9 0 0 1-1.172.234q-.298-.001-.531-.031a3 3 0 0 1-.375-.078v-1.422c.082.007.187.02.312.03q.187.031.39.032a1.27 1.27 0 0 0 1.11-.594q.187-.268.297-.578l.11-.328Zm14.507 6.641h-1.843v-7.14h-2.344V58.51h6.547v1.531h-2.36Zm6.288-6.766q.92.002 1.578.36.668.363 1.03 1.031.36.657.36 1.625v.89h-4.281q.03.77.453 1.204.436.422 1.203.422.64.001 1.172-.125.528-.122 1.078-.39v1.405a4.2 4.2 0 0 1-1.031.344q-.534.124-1.297.125-1.003 0-1.765-.375a2.77 2.77 0 0 1-1.204-1.125q-.438-.75-.437-1.89 0-1.171.39-1.938a2.66 2.66 0 0 1 1.094-1.172q.718-.389 1.657-.39m.015 1.297q-.533.002-.89.344-.345.33-.391 1.047h2.547a1.9 1.9 0 0 0-.156-.703 1.07 1.07 0 0 0-.422-.5q-.268-.188-.688-.188m7.117 5.593q-.984 0-1.687-.36-.69-.358-1.047-1.109-.362-.764-.36-1.937-.002-1.218.407-1.985a2.63 2.63 0 0 1 1.156-1.125q.732-.375 1.703-.375.685 0 1.188.141.499.127.875.313l-.532 1.406a11 11 0 0 0-.812-.281c-.242-.07-.48-.11-.719-.11q-.486 0-.797.219-.315.221-.469.672-.157.44-.156 1.11-.002.657.156 1.093.17.44.485.656c.219.137.476.203.781.203q.561.002 1-.156.434-.153.844-.422v1.547q-.41.27-.86.375-.454.124-1.156.125m5.373-9.359v1.875q0 .503-.047.953-.035.439-.047.625h.094q.217-.34.516-.563.294-.218.64-.312c.239-.07.493-.11.766-.11q.716.001 1.25.266.544.253.844.781c.195.356.297.82.297 1.39v4.33h-1.813v-3.876q-.001-.715-.266-1.078-.252-.358-.796-.36-.55.002-.875.25-.316.253-.438.75c-.086.325-.125.72-.125 1.188v3.125h-1.812v-9.234Zm9.94 2.468c.707 0 1.273.196 1.703.579q.656.58.656 1.859v4.328h-1.813v-3.875q-.001-.715-.265-1.078-.252-.358-.797-.36-.846 0-1.14.563-.299.564-.298 1.625v3.125h-1.812v-6.64h1.375l.25.859h.094q.215-.34.531-.563.328-.218.703-.312c.258-.07.531-.11.813-.11m10.252 3.438q0 .831-.235 1.469-.221.644-.64 1.093a2.8 2.8 0 0 1-1.016.672 3.9 3.9 0 0 1-1.344.22 3.8 3.8 0 0 1-1.297-.22 3 3 0 0 1-1.015-.672q-.422-.45-.656-1.093-.235-.638-.235-1.47 0-1.106.39-1.874a2.65 2.65 0 0 1 1.11-1.156q.733-.406 1.735-.407.936.001 1.656.407.714.393 1.125 1.156.422.768.422 1.875m-4.594 0q0 .657.14 1.11.14.438.438.671c.207.149.473.219.797.219.32 0 .582-.07.781-.219.195-.156.344-.379.438-.672q.14-.451.14-1.11 0-.654-.14-1.093c-.094-.289-.243-.508-.438-.656q-.299-.218-.797-.219-.702.001-1.03.5-.33.486-.33 1.469m7.9 3.328h-1.813v-9.234h1.813Zm7.927-3.328q0 .831-.235 1.469-.22.644-.64 1.093a2.8 2.8 0 0 1-1.016.672 3.9 3.9 0 0 1-1.344.22 3.8 3.8 0 0 1-1.297-.22 3 3 0 0 1-1.015-.672q-.422-.45-.656-1.093-.235-.638-.235-1.47 0-1.106.39-1.874a2.65 2.65 0 0 1 1.11-1.156q.733-.406 1.735-.407.936.001 1.656.407.714.393 1.125 1.156.422.768.422 1.875m-4.594 0q0 .657.14 1.11.14.438.438.671c.207.149.473.219.797.219.32 0 .582-.07.781-.219q.296-.233.438-.672.14-.451.14-1.11 0-.654-.14-1.093c-.142-.434-.438-.656-.735-.656Zm8.024 6.25q-1.394-.002-2.125-.484c-.493-.325-.735-.778-.735-1.36q0-.596.375-1 .374-.403 1.094-.578-.269-.121-.484-.39a.9.9 0 0 1-.204-.563c0-.258.07-.473.22-.64q.217-.249.64-.5a1.74 1.74 0 0 1-.844-.72q-.298-.497-.297-1.171-.002-.732.313-1.235.327-.497.937-.765.607-.282 1.485-.282.17.001.406.032a7 7 0 0 1 .734.093h2.313v.922l-1.032.266q.14.222.204.469.077.25.078.53 0 1.066-.75 1.673-.738.596-2.063.594a7 7 0 0 1-.594-.047 1 1 0 0 0-.218.234.46.46 0 0 0-.063.234q-.001.14.11.235a.8.8 0 0 0 .328.125q.234.033.562.031h1.125q1.092 0 1.656.469c.383.312.579.773.579 1.375q-.001 1.17-.97 1.812-.97.64-2.78.64m.078-1.188q.639-.001 1.11-.125.467-.11.718-.343a.7.7 0 0 0 .25-.532.54.54 0 0 0-.156-.39c-.094-.094-.243-.164-.438-.203a3.5 3.5 0 0 0-.75-.063h-.937q-.33-.001-.594.11-.27.107-.422.296a.77.77 0 0 0-.14.454q-.002.374.359.578.356.217 1 .218m.297-5.03q.499.002.734-.313c.164-.207.25-.493.25-.86 0-.394-.086-.691-.25-.89q-.253-.296-.734-.297-.504.002-.75.297-.251.299-.25.89 0 .55.234.86.248.314.766.312m6.365-3.343v6.641H253.7v-6.64Zm-.907-2.593q.406 0 .688.187c.195.125.297.36.297.703 0 .336-.102.563-.297.688a1.2 1.2 0 0 1-.688.187q-.41 0-.703-.187-.28-.186-.281-.688 0-.515.281-.703.294-.187.703-.187m5.537 2.468q.92.002 1.578.36.668.363 1.031 1.031.36.657.36 1.625v.89h-4.282q.03.77.454 1.204.434.422 1.203.422.638.001 1.172-.125.526-.122 1.078-.39v1.405a4.2 4.2 0 0 1-1.032.344q-.534.124-1.296.125-1.003 0-1.766-.375a2.77 2.77 0 0 1-1.203-1.125q-.439-.75-.438-1.89 0-1.171.39-1.938.39-.78 1.095-1.172.715-.389 1.656-.39m.016 1.297q-.534.002-.891.344-.345.33-.39 1.047h2.546a1.9 1.9 0 0 0-.156-.703 1.07 1.07 0 0 0-.422-.5c-.18-.125-.406-.188-.687-.188m9.054 3.499q0 .674-.328 1.14c-.211.313-.524.556-.938.72q-.626.234-1.562.234-.704 0-1.203-.094a5 5 0 0 1-.985-.297v-1.5q.529.253 1.157.407.622.157 1.093.156.516.002.75-.156a.48.48 0 0 0 .235-.422.47.47 0 0 0-.094-.281q-.096-.14-.406-.313a10 10 0 0 0-.938-.437 6.3 6.3 0 0 1-1.031-.532 1.8 1.8 0 0 1-.594-.625q-.187-.375-.187-.937-.001-.92.718-1.39.716-.47 1.907-.47.623.001 1.187.125.56.128 1.156.407l-.546 1.297q-.504-.201-.938-.344a2.9 2.9 0 0 0-.89-.14q-.394.001-.594.109a.35.35 0 0 0-.203.328q0 .158.093.28.106.13.407.282c.207.094.504.227.89.39q.561.224.969.485.42.251.64.625.235.362.235.953m0 0"/>
          </svg>